<svg width="101" height="50" viewBox="0 0 101 50" fill="none" xmlns="http://www.w3.org/2000/svg">
<path d="M46.5104 39.5125H49.1146V29.6893H46.5104V39.5125ZM46.5104 28.1574H49.1146V25.8214H46.5104V28.1574Z" fill="black"/>
<path d="M50.7926 42.7295H53.3968V38.4019H53.4352C53.9904 39.2444 54.8904 39.7997 56.2691 39.7997C58.7967 39.7997 60.52 37.7892 60.52 34.6105C60.52 31.5467 58.8541 29.4213 56.2499 29.4213C54.9096 29.4213 53.9904 30.0532 53.3585 30.9148H53.3011V29.6894H50.7926V42.7295ZM55.7138 37.6359C54.1628 37.6359 53.3394 36.4679 53.3394 34.6871C53.3394 32.9255 53.9904 31.5276 55.618 31.5276C57.2265 31.5276 57.8776 32.8296 57.8776 34.6871C57.8776 36.5445 57.0351 37.6359 55.7138 37.6359Z" fill="black"/>
<path d="M65.7149 39.7997C68.1659 39.7997 69.8509 38.6125 69.8509 36.6402C69.8509 34.3424 68.0319 33.8829 66.3851 33.5382C64.9872 33.251 63.6851 33.1743 63.6851 32.3318C63.6851 31.6234 64.3553 31.2403 65.3702 31.2403C66.4808 31.2403 67.151 31.6234 67.2659 32.6765H69.6212C69.4297 30.7042 67.9936 29.4213 65.4085 29.4213C63.1681 29.4213 61.4064 30.4361 61.4064 32.5616C61.4064 34.7062 63.1299 35.185 64.8915 35.5296C66.2319 35.7976 67.4765 35.8935 67.4765 36.8317C67.4765 37.5211 66.8255 37.9615 65.6765 37.9615C64.5085 37.9615 63.7042 37.4636 63.532 36.3338H61.1192C61.2724 38.4211 62.8618 39.7997 65.7149 39.7997Z" fill="black"/>
<path d="M79.7382 39.5125V29.6893H77.1341V35.3572C77.1341 36.6593 76.3873 37.5785 75.1618 37.5785C74.0512 37.5785 73.5341 36.9466 73.5341 35.7976V29.6893H70.9491V36.2381C70.9491 38.3827 72.1746 39.7806 74.3576 39.7806C75.7362 39.7806 76.5021 39.2635 77.1724 38.3635H77.2299V39.5125H79.7382Z" fill="black"/>
<path d="M81.4227 39.5125H84.027V33.8062C84.027 32.5041 84.7355 31.6616 85.7886 31.6616C86.7461 31.6616 87.3014 32.236 87.3014 33.3467V39.5125H89.9056V33.8062C89.9056 32.5041 90.5758 31.6616 91.6672 31.6616C92.6246 31.6616 93.18 32.236 93.18 33.3467V39.5125H95.7842V32.9063C95.7842 30.7616 94.6161 29.4213 92.5481 29.4213C91.3034 29.4213 90.2694 30.0723 89.5992 31.1446H89.5609C89.0822 30.1106 88.0864 29.4213 86.8418 29.4213C85.4823 29.4213 84.5248 30.1106 83.9886 31.0106H83.9312V29.6894H81.4227V39.5125Z" fill="black"/>
<path d="M46.5487 22.6876H49.1529V8.99646H46.5487V22.6876Z" fill="black"/>
<path d="M55.5205 22.9748C58.5652 22.9748 60.6524 20.7153 60.6524 17.7856C60.6524 14.8559 58.5652 12.5964 55.5205 12.5964C52.476 12.5964 50.3887 14.8559 50.3887 17.7856C50.3887 20.7153 52.476 22.9748 55.5205 22.9748ZM55.5205 20.9834C53.9121 20.9834 53.0313 19.7005 53.0313 17.7856C53.0313 15.8707 53.9121 14.5687 55.5205 14.5687C57.1099 14.5687 58.0099 15.8707 58.0099 17.7856C58.0099 19.7005 57.1099 20.9834 55.5205 20.9834Z" fill="black"/>
<path d="M66.1904 26.0387C67.6458 26.0387 68.9096 25.694 69.7329 24.928C70.4605 24.2578 70.901 23.3195 70.901 21.9408V12.8645H68.3925V13.8985H68.3543C67.7606 13.0751 66.8606 12.5964 65.6351 12.5964C63.1459 12.5964 61.3842 14.4729 61.3842 17.4027C61.3842 20.3707 63.5288 22.094 65.7118 22.094C66.9564 22.094 67.7032 21.5962 68.2777 20.9451H68.3351V22.0174C68.3351 23.3578 67.6266 24.0663 66.1522 24.0663C64.9458 24.0663 64.3905 23.5876 64.1799 22.9748H61.5948C61.8629 24.8897 63.5097 26.0387 66.1904 26.0387ZM66.1522 20.0068C64.8118 20.0068 63.9309 19.0303 63.9309 17.3644C63.9309 15.7176 64.8118 14.6836 66.133 14.6836C67.7032 14.6836 68.4691 15.909 68.4691 17.3452C68.4691 18.8005 67.7989 20.0068 66.1522 20.0068Z" fill="black"/>
<path d="M77.2309 22.9748C80.2755 22.9748 82.3627 20.7153 82.3627 17.7856C82.3627 14.8559 80.2755 12.5964 77.2309 12.5964C74.1864 12.5964 72.0991 14.8559 72.0991 17.7856C72.0991 20.7153 74.1864 22.9748 77.2309 22.9748ZM77.2309 20.9834C75.6225 20.9834 74.7416 19.7005 74.7416 17.7856C74.7416 15.8707 75.6225 14.5687 77.2309 14.5687C78.8203 14.5687 79.7203 15.8707 79.7203 17.7856C79.7203 19.7005 78.8203 20.9834 77.2309 20.9834Z" fill="black"/>
<path d="M84.6456 18.9346H95.9047V16.6942H84.6456V18.9346Z" fill="black"/>
<path d="M96.7304 28.0207C96.7304 27.58 97.0876 27.2228 97.5285 27.2228H99.1237C99.5647 27.2228 99.9218 27.58 99.9218 28.0207C99.9218 28.4613 99.5647 28.8185 99.1237 28.8185H97.5285C97.0876 28.8185 96.7304 28.4613 96.7304 28.0207Z" fill="black"/>
<path fill-rule="evenodd" clip-rule="evenodd" d="M20.211 5.95239C30.7307 5.95239 39.2586 14.4803 39.2586 25C39.2586 35.5197 30.7307 44.0476 20.211 44.0476C9.6913 44.0476 1.16339 35.5197 1.16339 25C1.16339 14.4803 9.6913 5.95239 20.211 5.95239ZM19.5225 7.37772C17.3496 7.68353 15.2804 9.42961 13.6742 12.3499C13.2083 13.197 12.788 14.1328 12.4216 15.1433C14.6056 14.5945 17.0047 14.2709 19.5225 14.2208V7.37772ZM10.8118 15.6008C11.2673 14.171 11.8246 12.8556 12.4678 11.6863C13.264 10.2387 14.2089 8.98854 15.2736 8.02836C9.48415 9.70975 4.92075 14.2731 3.23937 20.0626C4.19953 18.9979 5.44967 18.053 6.89735 17.2568C8.06663 16.6136 9.38203 16.0563 10.8118 15.6008ZM10.3542 17.2106C9.80545 19.3946 9.48189 21.7937 9.43184 24.3115H2.58871C2.89453 22.1385 4.64061 20.0693 7.56092 18.4633C8.408 17.9973 9.34383 17.577 10.3542 17.2106ZM10.8091 24.3115C10.866 21.5638 11.2615 18.9842 11.916 16.705C14.1952 16.0505 16.7749 15.6549 19.5225 15.598V18.5722C18.4975 21.1964 16.4068 23.2869 13.7825 24.3115H10.8091ZM9.43184 25.6885H2.58871C2.89453 27.8615 4.64061 29.9306 7.56092 31.5368C8.408 32.0027 9.34383 32.4231 10.3542 32.7894C9.80545 30.6054 9.48189 28.2063 9.43184 25.6885ZM11.916 33.2951C11.2615 31.0158 10.866 28.4362 10.8091 25.6885H13.7825C16.4068 26.7132 18.4976 28.8036 19.5225 31.4278V34.402C16.7749 34.3452 14.1952 33.9495 11.916 33.2951ZM10.8118 34.3993C9.38203 33.9437 8.06663 33.3864 6.89735 32.7432C5.44967 31.9471 4.19953 31.0021 3.23937 29.9374C4.92075 35.7269 9.48415 40.2903 15.2736 41.9716C14.2089 41.0114 13.264 39.7613 12.4678 38.3136C11.8246 37.1444 11.2673 35.829 10.8118 34.3993ZM19.5225 42.6223C17.3496 42.3165 15.2804 40.5704 13.6742 37.6501C13.2083 36.8031 12.788 35.8672 12.4216 34.8568C14.6056 35.4055 17.0047 35.7292 19.5225 35.7792V42.6223ZM25.1484 41.9716C26.2131 41.0114 27.1581 39.7613 27.9543 38.3136C28.5974 37.1444 29.1547 35.829 29.6102 34.3993C31.04 33.9437 32.3554 33.3864 33.5247 32.7432C34.9723 31.9471 36.2225 31.0021 37.1826 29.9374C35.5013 35.7269 30.9379 40.2903 25.1484 41.9716ZM28.0004 34.8568C27.6341 35.8672 27.2137 36.8031 26.7478 37.6501C25.1417 40.5704 23.0725 42.3165 20.8995 42.6223V35.7792C23.4173 35.7292 25.8164 35.4055 28.0004 34.8568ZM30.0678 32.7894C31.0781 32.4231 32.0141 32.0027 32.8611 31.5368C35.7814 29.9306 37.5275 27.8615 37.8333 25.6885H30.9902C30.9401 28.2063 30.6165 30.6054 30.0678 32.7894ZM29.613 25.6885C29.5561 28.4362 29.1605 31.0158 28.5061 33.2951C26.2268 33.9495 23.6472 34.3452 20.8995 34.402V31.43C21.9241 28.8049 24.0153 26.7134 26.6403 25.6885H29.613ZM30.9902 24.3115H37.8333C37.5275 22.1385 35.7814 20.0693 32.8611 18.4633C32.0141 17.9973 31.0781 17.577 30.0678 17.2106C30.6165 19.3946 30.9401 21.7937 30.9902 24.3115ZM28.5061 16.705C29.1605 18.9842 29.5561 21.5638 29.613 24.3115H26.6403C24.0153 23.2866 21.9241 21.1952 20.8995 18.57V15.598C23.6472 15.6549 26.2268 16.0505 28.5061 16.705ZM29.6102 15.6008C31.04 16.0563 32.3554 16.6136 33.5247 17.2568C34.9723 18.053 36.2225 18.9979 37.1826 20.0626C35.5013 14.2731 30.9379 9.70975 25.1484 8.02836C26.2131 8.98854 27.1581 10.2387 27.9543 11.6863C28.5974 12.8556 29.1547 14.171 29.6102 15.6008ZM20.8995 7.37772C23.0725 7.68353 25.1417 9.42961 26.7478 12.3499C27.2137 13.197 27.6341 14.1328 28.0004 15.1433C25.8164 14.5945 23.4173 14.2709 20.8995 14.2208V7.37772Z" fill="black"/>
</svg>
