<svg width="100" height="48" viewBox="0 0 100 48" fill="none" xmlns="http://www.w3.org/2000/svg">
<path d="M0 28.8397H3.22581V43.5058H0V28.8397Z" fill="black"/>
<path d="M4.98559 38.5298C4.98159 36.3936 6.26509 34.4654 8.23718 33.6451C10.2093 32.8248 12.4812 33.2741 13.9929 34.7832C15.5045 36.2924 15.958 38.564 15.1415 40.5381C14.3251 42.5121 12.3998 43.7995 10.264 43.7995C8.86094 43.8155 7.51055 43.2658 6.51745 42.2743C5.52435 41.2829 4.97221 39.9332 4.98559 38.5298ZM12.5572 38.5298C12.5247 37.2713 11.484 36.2742 10.2255 36.2957C8.96695 36.3173 7.96103 37.3495 7.9716 38.6084C7.98217 39.8674 9.00529 40.8825 10.264 40.8829C10.8878 40.9004 11.4905 40.656 11.9262 40.209C12.3618 39.762 12.5906 39.1532 12.5572 38.5298Z" fill="black"/>
<path d="M27.566 33.5234V43.0826C27.566 46.4652 24.9544 47.8921 22.3132 47.8921C20.4198 48.0347 18.6062 47.0954 17.6124 45.4574L20.155 43.9707C20.5678 44.8132 21.4466 45.3155 22.3724 45.2379C22.9758 45.3397 23.5917 45.1521 24.0395 44.73C24.4872 44.3079 24.716 43.6993 24.6587 43.0826V42.1546C23.9537 43.0328 22.8777 43.5182 21.7613 43.4618C18.9746 43.4618 16.7155 41.1744 16.7155 38.3529C16.7155 35.5313 18.9746 33.244 21.7613 33.244C22.8768 33.1924 23.9508 33.6769 24.6587 34.5511V33.5533L27.566 33.5234ZM24.6587 38.3529C24.699 37.3601 24.1393 36.4421 23.2447 36.0336C22.35 35.6251 21.3 35.8081 20.5917 36.4959C19.8834 37.1836 19.659 38.2382 20.0246 39.1603C20.3903 40.0824 21.2727 40.687 22.2541 40.6878C22.8873 40.7332 23.5099 40.5053 23.968 40.0604C24.4261 39.6156 24.677 38.9953 24.6587 38.3529Z" fill="black"/>
<path d="M29.3256 38.5298C29.3216 36.3936 30.6052 34.4654 32.5772 33.6451C34.5493 32.8248 36.8213 33.2741 38.3329 34.7832C39.8446 36.2924 40.298 38.564 39.4816 40.5381C38.6652 42.5121 36.7399 43.7995 34.6041 43.7995C33.201 43.8155 31.8506 43.2658 30.8575 42.2743C29.8644 41.2829 29.3123 39.9332 29.3256 38.5298ZM36.8973 38.5298C36.8647 37.2713 35.8241 36.2742 34.5655 36.2957C33.307 36.3173 32.3011 37.3495 32.3117 38.6084C32.3222 39.8674 33.3453 40.8825 34.6041 40.8829C35.2245 40.8948 35.8219 40.6479 36.2532 40.2016C36.6844 39.7553 36.9106 39.1496 36.8775 38.5298H36.8973Z" fill="black"/>
<path d="M41.3489 30.6679C41.3489 29.6582 42.2023 28.8397 43.255 28.8397C44.3078 28.8397 45.1612 29.6582 45.1612 30.6679C45.1612 31.6776 44.3078 32.4961 43.255 32.4961C42.2047 32.4907 41.3546 31.6753 41.3489 30.6679ZM41.6735 33.3801H44.8156V43.5058H41.6735V33.3801Z" fill="black"/>
<path d="M57.4706 38.5456C57.5423 39.8866 57.0871 41.2013 56.2058 42.1983C55.3246 43.1953 54.0902 43.7922 52.7764 43.8565C51.6708 43.9107 50.5986 43.4619 49.8486 42.6309V47.613H46.9208V33.5236H49.8486V34.4702C50.5986 33.6393 51.6708 33.1904 52.7764 33.2446C54.0884 33.309 55.3213 33.9045 56.2022 34.8993C57.0832 35.8941 57.5396 37.2063 57.4706 38.5456ZM54.5428 38.5456C54.5104 37.241 53.4597 36.2038 52.1815 36.2148C50.9034 36.2258 49.8699 37.281 49.8592 38.586C49.8484 39.8909 50.8642 40.9637 52.142 40.9968C52.7888 41.0388 53.4217 40.7933 53.8781 40.3235C54.3344 39.8538 54.5697 39.2055 54.5233 38.5456H54.5428Z" fill="black"/>
<path d="M66.8621 40.5037C66.8621 42.802 64.8681 43.7827 62.6747 43.7827C60.8821 43.9404 59.1731 42.9992 58.3577 41.4052L60.9698 39.9291C61.1883 40.6716 61.8981 41.1624 62.6747 41.108C63.4025 41.108 63.7614 40.8801 63.7614 40.4839C63.7614 39.3842 58.7764 39.9687 58.7764 36.5213C58.7764 34.3419 60.6308 33.2423 62.7644 33.2423C64.3677 33.1939 65.8714 34.013 66.6926 35.3821L64.0705 36.7491C63.8338 36.2146 63.3023 35.869 62.7146 35.8675C62.1961 35.8675 61.8771 36.0656 61.8771 36.4321C61.917 37.5714 66.8621 36.8086 66.8621 40.5037Z" fill="black"/>
<path d="M77.7127 33.5332V43.5048H74.7041V42.5749C73.9942 43.413 72.9206 43.8653 71.816 43.7917C69.8103 43.7917 68.0352 42.3573 68.0352 39.6567V33.5332H71.0438V39.2214C70.9902 39.7123 71.1634 40.2009 71.5153 40.5519C71.8673 40.903 72.3607 41.0792 72.8589 41.0317C73.962 41.0317 74.7342 40.3986 74.7342 38.984V33.5332H77.7127Z" fill="black"/>
<path d="M95.3079 37.3882V43.5065H92.3266V37.6456C92.3266 36.6556 91.8397 36.0022 90.8856 36.0022C89.9316 36.0022 89.3155 36.7051 89.3155 37.8832V43.5065H86.3342V37.6456C86.3342 36.6556 85.8572 36.0022 84.8933 36.0022C83.9294 36.0022 83.3331 36.7051 83.3331 37.8832V43.5065H80.3518V33.5272H83.3331V34.4479C83.9662 33.6217 84.976 33.1709 86.0162 33.25C87.0622 33.1994 88.0581 33.6992 88.6398 34.5667C89.3158 33.6604 90.4115 33.1632 91.5415 33.25C93.8073 33.25 95.3079 34.8934 95.3079 37.3882Z" fill="black"/>
<path d="M97.8006 33.2395C99.0153 33.2395 100 32.2546 100 31.0396C100 29.8246 99.0153 28.8397 97.8006 28.8397C96.5859 28.8397 95.6012 29.8246 95.6012 31.0396C95.6012 32.2546 96.5859 33.2395 97.8006 33.2395Z" fill="black"/>
<path d="M33.8711 21.2125C39.6207 21.2125 44.2817 16.5505 44.2817 10.7996C44.2817 5.04869 39.6207 0.386658 33.8711 0.386658C28.1215 0.386658 23.4605 5.04869 23.4605 10.7996C23.4605 16.5505 28.1215 21.2125 33.8711 21.2125Z" fill="black"/>
<path d="M57.3313 21.2125C63.0809 21.2125 67.7419 16.5505 67.7419 10.7996C67.7419 5.04869 63.0809 0.386658 57.3313 0.386658C51.5817 0.386658 46.9208 5.04869 46.9208 10.7996C46.9208 16.5505 51.5817 21.2125 57.3313 21.2125Z" fill="black"/>
<path d="M21.1144 0.093689H0.293274V20.9196H21.1144V0.093689Z" fill="black"/>
</svg>
