<svg width="161" height="26" viewBox="0 0 161 26" fill="none" xmlns="http://www.w3.org/2000/svg">
<g clip-path="url(#clip0_106_1137)">
<path d="M31.2233 1.79732H35.7967V19.9026H31.2233V1.79732ZM37.61 13.0078C37.61 8.53416 40.4233 5.86311 44.7567 5.86311C49.09 5.86311 51.9033 8.49469 51.9033 13.0078C51.9033 17.5211 49.1567 20.2316 44.77 20.2316C40.3833 20.2316 37.61 17.6132 37.61 13.0078ZM47.3167 13.0078C47.3167 10.5473 46.3167 9.06047 44.7567 9.06047C43.1967 9.06047 42.2233 10.5605 42.2233 13.0078C42.2233 15.4553 43.1833 16.9553 44.7567 16.9553C46.33 16.9553 47.3167 15.6395 47.3167 13.0999V13.0078ZM53.6367 20.7316H58.1033C58.3097 21.185 58.6609 21.5593 59.1033 21.7974C59.5487 22.0446 60.0636 22.1416 60.57 22.0737C62.3167 22.0737 63.2367 21.1526 63.2367 19.8105V17.35H63.1567C62.7824 18.118 62.1867 18.7599 61.4443 19.1953C60.7019 19.6307 59.8459 19.8401 58.9833 19.7974C55.6367 19.7974 53.4233 17.3105 53.4233 13.021C53.4233 8.73153 55.4367 6.03416 58.9567 6.03416C59.8503 6.00179 60.7329 6.23562 61.49 6.70521C62.2435 7.17337 62.8343 7.85736 63.1833 8.66574V6.16574H67.7567V19.7579C67.7567 23.0211 64.81 25.0211 60.4633 25.0211C56.4633 25.0211 53.89 23.2447 53.6367 20.7711V20.7316ZM63.1833 13.0078C63.1833 10.8368 62.1567 9.45521 60.5167 9.45521C58.8767 9.45521 57.85 10.771 57.85 13.0078C57.85 15.2447 58.8233 16.4421 60.5167 16.4421C62.21 16.4421 63.1833 15.2316 63.1833 13.021V13.0078ZM69.49 13.0078C69.49 8.53416 72.29 5.86311 76.6233 5.86311C77.5908 5.7865 78.5636 5.91928 79.4737 6.2522C80.3837 6.58511 81.2092 7.11011 81.8924 7.79053C82.5755 8.47093 83.0999 9.29036 83.4288 10.1915C83.7576 11.0927 83.8832 12.0538 83.7967 13.0078C83.7967 17.4947 81.0367 20.1789 76.6233 20.1789C72.21 20.1789 69.49 17.5474 69.49 13.021V13.0078ZM79.1833 13.0078C79.1833 10.5473 78.1833 9.06047 76.6233 9.06047C75.0633 9.06047 74.17 10.5736 74.17 13.0078C74.17 15.4421 75.13 16.9553 76.69 16.9553C78.25 16.9553 79.1833 15.5737 79.1833 13.0868V13.0078ZM85.53 2.87626C85.5135 2.41196 85.6389 1.95351 85.89 1.56048C86.1419 1.18086 86.498 0.879688 86.9167 0.692055C87.3359 0.511622 87.7995 0.456716 88.25 0.53416C88.7105 0.617398 89.1344 0.836945 89.4655 1.16363C89.7965 1.49031 90.0189 1.90867 90.1033 2.36311C90.2037 2.80124 90.1712 3.25883 90.01 3.67889C89.8395 4.0925 89.5509 4.44829 89.1792 4.70292C88.8076 4.95757 88.3689 5.10008 87.9167 5.11311C87.6101 5.13733 87.3019 5.09707 87.0123 4.995C86.7227 4.89293 86.4583 4.73137 86.2367 4.521C86.0069 4.32079 85.8247 4.07325 85.7025 3.79587C85.5804 3.5185 85.5215 3.21804 85.53 2.91574V2.87626ZM85.53 6.16574H90.1033V19.9026H85.53V6.16574ZM106.743 13.0078C106.743 17.4947 104.703 20.0474 101.223 20.0474C100.33 20.1014 99.4421 19.8857 98.6767 19.4289C97.9155 18.9799 97.3144 18.3086 96.9567 17.5079H96.8633V24.2447H92.2767V6.16574H96.8633V8.61311H96.9567C97.3036 7.79758 97.8968 7.1074 98.6555 6.63651C99.4141 6.16562 100.301 5.93691 101.197 5.98153C104.703 5.98153 106.797 8.61311 106.797 13.0868L106.743 13.0078ZM102.103 13.0078C102.103 10.8368 101.09 9.44205 99.4367 9.44205C97.7833 9.44205 96.77 10.8499 96.77 13.0078C96.77 15.1658 97.81 16.5605 99.4367 16.5605C101.063 16.5605 102.103 15.2447 102.103 13.0473V13.0078ZM114.557 5.84995C118.357 5.84995 120.663 7.61311 120.77 10.4289H116.65C116.65 9.45521 115.823 8.84995 114.557 8.84995C113.29 8.84995 112.73 9.32363 112.73 10.021C112.73 10.7184 113.223 10.9552 114.25 11.1657L117.183 11.7447C119.983 12.3236 121.183 13.4289 121.183 15.5079C121.183 18.3368 118.517 20.1658 114.65 20.1658C110.783 20.1658 108.21 18.3368 107.983 15.5474H112.397C112.53 16.5605 113.357 17.1658 114.703 17.1658C116.05 17.1658 116.65 16.7316 116.65 16.0079C116.65 15.2842 116.223 15.1395 115.13 14.9158L112.463 14.3763C109.797 13.8237 108.29 12.4026 108.29 10.3105C108.29 7.67889 110.783 5.87626 114.57 5.87626L114.557 5.84995ZM136.396 19.8368H131.983V17.3237H131.903C131.653 18.1787 131.117 18.9253 130.383 19.4421C129.642 19.9618 128.744 20.2171 127.837 20.1658C127.142 20.2025 126.447 20.095 125.797 19.8503C125.147 19.6054 124.557 19.2288 124.063 18.7447C123.583 18.2499 123.211 17.6633 122.97 17.0211C122.741 16.3799 122.65 15.6987 122.703 15.0211V6.16574H127.29V14.0605C127.29 15.6789 128.143 16.5474 129.557 16.5474C129.891 16.5482 130.223 16.4809 130.53 16.35C130.832 16.2163 131.101 16.0187 131.317 15.7711C131.542 15.532 131.707 15.2433 131.797 14.9289C131.902 14.62 131.93 14.2901 131.877 13.9684V6.16574H136.463L136.396 19.8368ZM138.663 6.16574H143.103V8.79732H143.183C143.429 7.95083 143.955 7.20979 144.676 6.69205C145.397 6.16658 146.273 5.88922 147.169 5.90258C148.084 5.83334 148.991 6.10053 149.716 6.65258C150.431 7.20646 150.907 8.00501 151.049 8.88942H151.143C151.425 8.00038 151.997 7.22807 152.769 6.69205C153.551 6.15479 154.485 5.88233 155.436 5.91574C156.059 5.8919 156.679 5.99662 157.257 6.22321C157.836 6.4498 158.36 6.79325 158.796 7.23153C159.224 7.67369 159.556 8.19762 159.769 8.771C159.98 9.34337 160.067 9.95305 160.023 10.5605V19.8895H155.436V11.771C155.436 10.271 154.756 9.58679 153.463 9.58679C153.179 9.58508 152.897 9.64341 152.636 9.75784C152.377 9.86936 152.145 10.0355 151.956 10.2447C151.769 10.4549 151.628 10.7018 151.543 10.9693C151.457 11.2367 151.431 11.5189 151.463 11.7973V19.9026H147.116V11.6921C147.116 10.3763 146.423 9.57363 145.169 9.57363C144.884 9.57524 144.603 9.63808 144.343 9.75784C144.077 9.86444 143.84 10.0312 143.649 10.2447C143.455 10.4566 143.309 10.7081 143.223 10.9815C143.144 11.2503 143.116 11.5317 143.143 11.8105V19.8895H138.569L138.663 6.16574Z" fill="black"/>
<path d="M4.08796 16.8079L4.07661 16.7911C3.85157 16.5684 3.71134 16.2758 3.67962 15.9628C3.65761 15.7648 3.67889 15.5644 3.74201 15.3751C3.76762 15.2262 3.8134 15.0812 3.87812 14.9442L3.92349 14.8491L8.08622 7.58459H20.478C20.8388 7.58961 21.1844 7.72915 21.4452 7.97517C21.7061 8.22121 21.8631 8.55553 21.8845 8.911L21.8901 9.00056V21.8282C21.8955 22.1883 21.7609 22.5367 21.5141 22.8021C21.2675 23.0674 20.927 23.2296 20.563 23.2553L20.4724 23.2609H10.5419C10.6787 23.1133 10.7819 22.9387 10.8445 22.7484C10.9071 22.5583 10.9277 22.357 10.9048 22.1583C10.8831 21.9901 10.8234 21.829 10.7301 21.6866C10.6369 21.5442 10.5125 21.4242 10.3661 21.3357L10.281 21.2796L4.25809 16.9534L4.1787 16.8975V16.8919L4.25809 16.9478C4.20442 16.9121 4.15326 16.8729 4.10497 16.8303L4.08796 16.8136V16.8079Z" fill="url(#paint0_linear_106_1137)"/>
<path d="M12.2714 3.16349C12.4654 3.122 12.666 3.12097 12.8603 3.16049C13.0547 3.20001 13.2385 3.27918 13.4 3.39295L17.1204 6.03458C17.3644 6.20755 17.5464 6.45252 17.6401 6.73417C17.734 7.01583 17.7346 7.31959 17.6421 7.60166V7.58487L12.8216 22.1362L12.7932 22.2482L12.7762 22.2929L12.7592 22.3433L12.6741 22.5224L12.6628 22.5447L12.555 22.7071L12.538 22.7295C12.4973 22.7786 12.4538 22.8253 12.4076 22.8694L12.3905 22.8805C12.2935 22.9719 12.1825 23.0474 12.0616 23.1045L12.0446 23.1212C11.9886 23.1512 11.9297 23.1755 11.8688 23.194H11.8404L11.6533 23.2387H11.6249C11.5574 23.2496 11.4891 23.2553 11.4207 23.2555H1.76819C1.57881 23.2555 1.3913 23.2186 1.21647 23.1467C1.04165 23.0749 0.882968 22.9695 0.749581 22.8369C0.616194 22.7042 0.510742 22.5467 0.439306 22.3737C0.367869 22.2007 0.331861 22.0153 0.333358 21.8284V9.01201C0.332387 8.82527 0.368756 8.64017 0.44038 8.46731C0.512004 8.29447 0.617477 8.13726 0.750758 8.00468C0.88404 7.87212 1.04251 7.7668 1.2171 7.69476C1.39169 7.62272 1.57896 7.58537 1.76819 7.58487H9.18058L11.3357 3.83509C11.5176 3.52351 11.8141 3.29304 12.1637 3.19147L12.2658 3.16349H12.2714Z" fill="#0073E6"/>
<path d="M17.563 7.58459L12.8161 22.1359L12.8048 22.1919L12.7934 22.2479L12.7764 22.2926L12.7594 22.343L12.7197 22.4325L12.6743 22.5221L12.663 22.5445L12.6063 22.6284L12.5552 22.7069L12.5382 22.7292L12.4758 22.802L12.4078 22.8691L12.3908 22.8803C12.3458 22.9276 12.2964 22.9708 12.2433 23.009L12.1583 23.065L12.0618 23.1098L12.0448 23.1209L11.9598 23.1601L11.869 23.1937H11.8407L11.7499 23.2217L11.6932 23.2273L11.7499 23.1713C11.979 22.8829 12.083 22.5166 12.0392 22.1528C12.0174 21.9846 11.9577 21.8234 11.8644 21.6811C11.7712 21.5386 11.6468 21.4187 11.5004 21.33L11.4153 21.2741L5.39239 16.9478L5.31299 16.8919C5.26035 16.847 5.21107 16.7983 5.16554 16.7463L5.14286 16.7183C5.11905 16.693 5.09635 16.6669 5.07481 16.64L5.06346 16.6176L5.04645 16.5953C5.01031 16.5416 4.9781 16.4855 4.95003 16.4274L4.93302 16.3937C4.89763 16.318 4.86915 16.2394 4.84795 16.1587L4.84229 16.1195L4.83094 16.0636L4.82527 16.03C4.79577 15.8416 4.80541 15.6492 4.85362 15.4648L4.86497 15.4144C4.87215 15.3957 4.87971 15.377 4.88765 15.3584C4.90538 15.215 4.94555 15.0754 5.00675 14.9442L5.06346 14.8491L9.21485 7.58459H17.563Z" fill="#3B54EF"/>
</g>
<defs>
<linearGradient id="paint0_linear_106_1137" x1="12.7625" y1="8.52517" x2="12.7625" y2="24.2015" gradientUnits="userSpaceOnUse">
<stop offset="0.1" stop-color="#FF80FF"/>
<stop offset="0.39" stop-color="#FF7BF9"/>
<stop offset="0.77" stop-color="#FF6EEA"/>
<stop offset="1" stop-color="#FF62DC"/>
</linearGradient>
<clipPath id="clip0_106_1137">
<rect width="160" height="25" fill="white" transform="translate(0.333313 0.5)"/>
</clipPath>
</defs>
</svg>
