<svg width="100" height="50" viewBox="0 0 100 50" fill="none" xmlns="http://www.w3.org/2000/svg">
<g clip-path="url(#clip0_106_1155)">
<path d="M0.029541 44.2623H9.2594V41.6126H2.84403V29.2399H0.029541V44.2623Z" fill="#333268"/>
<path d="M14.8059 44.5753C15.9235 44.5753 16.9065 44.3249 17.7549 43.8241C18.6103 43.3164 19.276 42.6175 19.752 41.7273C20.2349 40.8301 20.4763 39.7973 20.4763 38.6289C20.4763 37.4675 20.2383 36.4417 19.7623 35.5514C19.2863 34.6543 18.6206 33.9518 17.7653 33.4441C16.9168 32.9364 15.9304 32.6826 14.8059 32.6826C13.7022 32.6826 12.7261 32.933 11.8776 33.4337C11.0292 33.9344 10.3635 34.6334 9.88056 35.5306C9.39771 36.4208 9.15625 37.4535 9.15625 38.6289C9.15625 39.7903 9.3908 40.8197 9.85991 41.7168C10.3358 42.6071 10.9981 43.306 11.8466 43.8137C12.6951 44.3214 13.6815 44.5753 14.8059 44.5753ZM14.8059 41.9255C13.9298 41.9255 13.2642 41.6299 12.8089 41.0388C12.3605 40.4407 12.1363 39.6374 12.1363 38.6289C12.1363 37.6483 12.3502 36.8554 12.7779 36.2503C13.2124 35.6384 13.8884 35.3323 14.8059 35.3323C15.6958 35.3323 16.3649 35.6314 16.8133 36.2295C17.2686 36.8276 17.4962 37.6274 17.4962 38.6289C17.4962 39.5957 17.2721 40.3885 16.8236 41.0075C16.3822 41.6194 15.7096 41.9255 14.8059 41.9255Z" fill="#333268"/>
<path d="M26.0422 44.5753C26.5665 44.5753 27.0494 44.5126 27.4909 44.3875C27.9393 44.2623 28.3463 44.0849 28.7119 43.8554V44.9926C28.7257 45.4099 28.6187 45.7576 28.3911 46.0358C28.1703 46.3209 27.8738 46.533 27.5012 46.6721C27.1287 46.8182 26.732 46.8912 26.3113 46.8912C25.9181 46.8912 25.5525 46.8043 25.2145 46.6304C24.8833 46.4566 24.6281 46.2027 24.4487 45.8689L21.8412 47.1416C22.2689 47.8718 22.8794 48.4595 23.6727 48.9046C24.466 49.3567 25.3386 49.5827 26.2906 49.5827C27.1115 49.5827 27.8738 49.4714 28.5773 49.2489C29.281 49.0333 29.8742 48.703 30.3571 48.2578C30.8468 47.8127 31.1815 47.2459 31.3608 46.5574C31.4229 46.3139 31.4642 46.0671 31.485 45.8167C31.5125 45.5733 31.5264 45.3125 31.5264 45.0343V32.9955H29.0637V33.6215C28.6842 33.3224 28.2531 33.0929 27.7703 32.933C27.2942 32.766 26.7666 32.6826 26.1871 32.6826C25.1179 32.6826 24.1866 32.9399 23.3933 33.4545C22.6 33.9692 21.9826 34.6751 21.5412 35.5723C21.1065 36.4625 20.8893 37.4814 20.8893 38.629C20.8893 39.7556 21.1031 40.7675 21.5308 41.6647C21.9654 42.5618 22.569 43.2712 23.3416 43.7929C24.1142 44.3144 25.0144 44.5753 26.0422 44.5753ZM26.4975 42.0507C25.8905 42.0507 25.3938 41.8976 25.0075 41.5917C24.6212 41.2857 24.3349 40.8753 24.1487 40.3607C23.9625 39.839 23.8693 39.2618 23.8693 38.629C23.8693 38.003 23.9659 37.4327 24.159 36.918C24.3522 36.3964 24.6488 35.9826 25.0489 35.6766C25.4559 35.3636 25.9733 35.2071 26.601 35.2071C27.484 35.2071 28.1151 35.5236 28.4946 36.1565C28.874 36.7824 29.0637 37.6066 29.0637 38.629C29.0637 39.6512 28.8705 40.4789 28.4842 41.1117C28.1048 41.7377 27.4426 42.0507 26.4975 42.0507Z" fill="#333268"/>
<path d="M38.2112 44.5753C39.3288 44.5753 40.3118 44.3249 41.1602 43.8241C42.0156 43.3164 42.6813 42.6175 43.1573 41.7273C43.6401 40.8301 43.8816 39.7973 43.8816 38.6289C43.8816 37.4675 43.6436 36.4417 43.1676 35.5514C42.6916 34.6543 42.0259 33.9518 41.1705 33.4441C40.3221 32.9364 39.3356 32.6826 38.2112 32.6826C37.1075 32.6826 36.1314 32.933 35.2829 33.4337C34.4344 33.9344 33.7688 34.6334 33.2858 35.5306C32.803 36.4208 32.5615 37.4535 32.5615 38.6289C32.5615 39.7903 32.7961 40.8197 33.2652 41.7168C33.7411 42.6071 34.4034 43.306 35.2518 43.8137C36.1004 44.3214 37.0868 44.5753 38.2112 44.5753ZM38.2112 41.9255C37.3351 41.9255 36.6694 41.6299 36.2141 41.0388C35.7657 40.4407 35.5416 39.6374 35.5416 38.6289C35.5416 37.6483 35.7554 36.8554 36.1831 36.2503C36.6177 35.6384 37.2937 35.3323 38.2112 35.3323C39.1011 35.3323 39.7702 35.6314 40.2186 36.2295C40.6739 36.8276 40.9015 37.6274 40.9015 38.6289C40.9015 39.5957 40.6773 40.3885 40.2289 41.0075C39.7875 41.6194 39.1149 41.9255 38.2112 41.9255Z" fill="#333268"/>
<path d="M45.1223 31.4306H47.9368V28.9269H45.1223V31.4306ZM45.1223 44.2623H47.9368V32.9955H45.1223V44.2623Z" fill="#333268"/>
<path d="M49.7765 49.2698H52.6117V43.8554C52.9773 44.0849 53.3809 44.2623 53.8223 44.3875C54.2707 44.5126 54.7571 44.5753 55.2813 44.5753C56.3092 44.5753 57.2094 44.3144 57.982 43.7929C58.7546 43.2712 59.3547 42.5618 59.7824 41.6647C60.217 40.7675 60.4343 39.7556 60.4343 38.6289C60.4343 37.4814 60.2136 36.4625 59.7721 35.5723C59.3375 34.6751 58.7236 33.9692 57.9302 33.4545C57.137 32.9399 56.2057 32.6826 55.1365 32.6826C54.557 32.6826 54.0258 32.766 53.5429 32.933C53.067 33.0929 52.6393 33.3224 52.2599 33.6215V32.9955H49.7765V49.2698ZM54.826 42.0507C53.8879 42.0507 53.2257 41.7377 52.8393 41.1117C52.453 40.4789 52.2599 39.6512 52.2599 38.6289C52.2599 37.6066 52.4496 36.7824 52.829 36.1565C53.2153 35.5236 53.8465 35.2071 54.7226 35.2071C55.3503 35.2071 55.8642 35.3636 56.2643 35.6766C56.6713 35.9826 56.9714 36.3964 57.1645 36.918C57.3577 37.4327 57.4543 38.003 57.4543 38.6289C57.4543 39.2618 57.3611 39.839 57.1749 40.3607C56.9886 40.8753 56.7023 41.2857 56.3161 41.5917C55.9297 41.8976 55.4331 42.0507 54.826 42.0507Z" fill="#333268"/>
<path d="M65.533 44.5753C66.9954 44.5753 68.1405 44.2449 68.9683 43.5842C69.7961 42.9235 70.21 42.0159 70.21 40.8614C70.21 39.9851 69.941 39.2931 69.4029 38.7854C68.8717 38.2777 67.9681 37.8569 66.6919 37.5231C65.8227 37.3005 65.1743 37.1197 64.7466 36.9806C64.3258 36.8416 64.0464 36.7059 63.9085 36.5738C63.7774 36.4417 63.7119 36.2782 63.7119 36.0835C63.7119 35.7566 63.8671 35.5062 64.1775 35.3323C64.4948 35.1585 64.9121 35.0889 65.4295 35.1237C66.5263 35.2071 67.1265 35.6801 67.2299 36.5425L70.1065 36.0208C69.9617 34.9985 69.465 34.1883 68.6165 33.5902C67.7681 32.9851 66.685 32.6826 65.3674 32.6826C64.0154 32.6826 62.9358 33.0025 62.1287 33.6423C61.3216 34.2821 60.9181 35.1445 60.9181 36.2295C60.9181 37.0919 61.1974 37.7735 61.7562 38.2742C62.315 38.768 63.2772 39.1922 64.6431 39.547C65.4502 39.7626 66.0435 39.9364 66.4229 40.0685C66.8092 40.2007 67.0575 40.3363 67.1679 40.4754C67.2782 40.6076 67.3334 40.7849 67.3334 41.0075C67.3334 41.3621 67.1954 41.6403 66.9195 41.8421C66.6436 42.0367 66.2504 42.1341 65.7399 42.1341C65.1191 42.1341 64.6052 41.9846 64.1982 41.6855C63.7981 41.3865 63.5394 40.9727 63.4221 40.4441L60.5455 40.8822C60.7318 42.0576 61.2561 42.9687 62.1184 43.6155C62.9876 44.2553 64.1258 44.5753 65.533 44.5753Z" fill="#333268"/>
<path d="M75.4017 44.5961C76.2088 44.5961 76.9125 44.4605 77.5126 44.1893C78.1128 43.918 78.6164 43.5564 79.0234 43.1043V44.2623H81.5065V32.9955H78.6715V38.7124C78.6715 39.4079 78.5922 39.9711 78.4335 40.4024C78.2817 40.8266 78.0852 41.15 77.8437 41.3725C77.6023 41.5882 77.3436 41.7342 77.0677 41.8107C76.7917 41.8872 76.533 41.9255 76.2917 41.9255C75.6915 41.9255 75.2258 41.7898 74.8947 41.5186C74.5705 41.2474 74.336 40.9101 74.1911 40.5067C74.0462 40.1033 73.96 39.7034 73.9324 39.307C73.9048 38.9036 73.891 38.5733 73.891 38.3159V32.9955H71.0352V39.3174C71.0352 39.5052 71.049 39.8043 71.0765 40.2146C71.1041 40.6249 71.1835 41.0805 71.3145 41.5812C71.4456 42.075 71.6629 42.5514 71.9665 43.0104C72.2769 43.4694 72.708 43.8484 73.2599 44.1475C73.8117 44.4465 74.5256 44.5961 75.4017 44.5961Z" fill="#333268"/>
<path d="M83.1366 44.2623H85.9716V37.4396C85.9716 36.7929 86.1472 36.2678 86.4992 35.8643C86.8577 35.454 87.3301 35.2488 87.9171 35.2488C88.5309 35.2488 89.0106 35.4575 89.3553 35.8748C89.7065 36.2851 89.8829 36.8624 89.8829 37.6065V44.2623H92.6976V37.4396C92.6976 36.7929 92.8732 36.2678 93.2252 35.8643C93.5837 35.454 94.0561 35.2488 94.6423 35.2488C95.2569 35.2488 95.7358 35.4575 96.0805 35.8748C96.4325 36.2851 96.609 36.8624 96.609 37.6065V44.2623H99.4228V36.8554C99.4228 35.6244 99.0951 34.6299 98.4398 33.8718C97.7919 33.1068 96.8293 32.7242 95.5529 32.7242C94.8358 32.7242 94.1772 32.8807 93.5764 33.1937C92.9764 33.5067 92.4976 33.9344 92.1382 34.4769C91.8488 33.9483 91.435 33.5241 90.8968 33.2042C90.3585 32.8842 89.6894 32.7242 88.8894 32.7242C88.213 32.7242 87.5927 32.8599 87.0268 33.1311C86.461 33.3954 85.9919 33.7606 85.6195 34.2265V32.9955H83.1366V44.2623Z" fill="#333268"/>
<path d="M0 11.8852C5.69181e-07 5.3212 5.27794 -5.73844e-07 11.7886 0C15.3185 3.11123e-07 18.486 1.56413 20.6465 4.04243C24.5665 8.47951 27.808 8.24606 31.2503 4.97045C32.9394 3.36265 35.2173 2.37705 37.7236 2.37705C42.9321 2.37706 47.1545 6.63401 47.1545 11.8852C47.1545 17.1365 42.9321 21.3934 37.7236 21.3934C35.2173 21.3934 32.9394 20.4078 31.2503 18.8C27.8088 15.5252 24.5681 15.291 20.6493 19.7248C18.4888 22.205 15.32 23.7705 11.7886 23.7705C5.27794 23.7705 -5.6918e-07 18.4493 0 11.8852Z" fill="#F2F5FA"/>
<path d="M0 11.8852C5.69181e-07 5.3212 5.27794 -5.73844e-07 11.7886 0C15.3185 3.11123e-07 18.486 1.56413 20.6465 4.04243C24.5665 8.47951 27.808 8.24606 31.2503 4.97045C32.9394 3.36265 35.2173 2.37705 37.7236 2.37705C42.9321 2.37706 47.1545 6.63401 47.1545 11.8852C47.1545 17.1365 42.9321 21.3934 37.7236 21.3934C35.2173 21.3934 32.9394 20.4078 31.2503 18.8C27.8088 15.5252 24.5681 15.291 20.6493 19.7248C18.4888 22.205 15.32 23.7705 11.7886 23.7705C5.27794 23.7705 -5.6918e-07 18.4493 0 11.8852Z" fill="url(#paint0_linear_106_1155)"/>
<path d="M0 11.8852C5.69181e-07 5.3212 5.27794 -5.73844e-07 11.7886 0C15.3185 3.11123e-07 18.486 1.56413 20.6465 4.04243C24.5665 8.47951 27.808 8.24606 31.2503 4.97045C32.9394 3.36265 35.2173 2.37705 37.7236 2.37705C42.9321 2.37706 47.1545 6.63401 47.1545 11.8852C47.1545 17.1365 42.9321 21.3934 37.7236 21.3934C35.2173 21.3934 32.9394 20.4078 31.2503 18.8C27.8088 15.5252 24.5681 15.291 20.6493 19.7248C18.4888 22.205 15.32 23.7705 11.7886 23.7705C5.27794 23.7705 -5.6918e-07 18.4493 0 11.8852Z" fill="url(#paint1_linear_106_1155)"/>
<path d="M0 11.8852C5.69181e-07 5.3212 5.27794 -5.73844e-07 11.7886 0C15.3185 3.11123e-07 18.486 1.56413 20.6465 4.04243C24.5665 8.47951 27.808 8.24606 31.2503 4.97045C32.9394 3.36265 35.2173 2.37705 37.7236 2.37705C42.9321 2.37706 47.1545 6.63401 47.1545 11.8852C47.1545 17.1365 42.9321 21.3934 37.7236 21.3934C35.2173 21.3934 32.9394 20.4078 31.2503 18.8C27.8088 15.5252 24.5681 15.291 20.6493 19.7248C18.4888 22.205 15.32 23.7705 11.7886 23.7705C5.27794 23.7705 -5.6918e-07 18.4493 0 11.8852Z" fill="url(#paint2_radial_106_1155)"/>
<path d="M0 11.8852C5.69181e-07 5.3212 5.27794 -5.73844e-07 11.7886 0C15.3185 3.11123e-07 18.486 1.56413 20.6465 4.04243C24.5665 8.47951 27.808 8.24606 31.2503 4.97045C32.9394 3.36265 35.2173 2.37705 37.7236 2.37705C42.9321 2.37706 47.1545 6.63401 47.1545 11.8852C47.1545 17.1365 42.9321 21.3934 37.7236 21.3934C35.2173 21.3934 32.9394 20.4078 31.2503 18.8C27.8088 15.5252 24.5681 15.291 20.6493 19.7248C18.4888 22.205 15.32 23.7705 11.7886 23.7705C5.27794 23.7705 -5.6918e-07 18.4493 0 11.8852Z" fill="url(#paint3_radial_106_1155)"/>
<path d="M0 11.8852C5.69181e-07 5.3212 5.27794 -5.73844e-07 11.7886 0C15.3185 3.11123e-07 18.486 1.56413 20.6465 4.04243C24.5665 8.47951 27.808 8.24606 31.2503 4.97045C32.9394 3.36265 35.2173 2.37705 37.7236 2.37705C42.9321 2.37706 47.1545 6.63401 47.1545 11.8852C47.1545 17.1365 42.9321 21.3934 37.7236 21.3934C35.2173 21.3934 32.9394 20.4078 31.2503 18.8C27.8088 15.5252 24.5681 15.291 20.6493 19.7248C18.4888 22.205 15.32 23.7705 11.7886 23.7705C5.27794 23.7705 -5.6918e-07 18.4493 0 11.8852Z" fill="url(#paint4_radial_106_1155)"/>
</g>
<defs>
<linearGradient id="paint0_linear_106_1155" x1="35.5253" y1="17.7925" x2="8.21036" y2="-3.26202" gradientUnits="userSpaceOnUse">
<stop stop-color="#FF557E"/>
<stop offset="0.841052" stop-color="#FF5555" stop-opacity="0"/>
</linearGradient>
<linearGradient id="paint1_linear_106_1155" x1="11.7905" y1="22.1765" x2="19.1538" y2="-3.12368" gradientUnits="userSpaceOnUse">
<stop stop-color="#58CCDC"/>
<stop offset="1" stop-color="#58CCDC" stop-opacity="0"/>
</linearGradient>
<radialGradient id="paint2_radial_106_1155" cx="0" cy="0" r="1" gradientUnits="userSpaceOnUse" gradientTransform="translate(36.982 28.7221) rotate(-122.715) scale(30.2969 24.7253)">
<stop stop-color="#8263DB"/>
<stop offset="0.568731" stop-color="#8172DA" stop-opacity="0.26"/>
<stop offset="1" stop-color="#8172DA" stop-opacity="0"/>
</radialGradient>
<radialGradient id="paint3_radial_106_1155" cx="0" cy="0" r="1" gradientUnits="userSpaceOnUse" gradientTransform="translate(14.8798 -3.43855) rotate(77.7717) scale(20.4488 31.9032)">
<stop stop-color="#41D1B7"/>
<stop offset="0.492704" stop-color="#41D1B7" stop-opacity="0.35"/>
<stop offset="1" stop-color="#41D1B7" stop-opacity="0"/>
</radialGradient>
<radialGradient id="paint4_radial_106_1155" cx="0" cy="0" r="1" gradientUnits="userSpaceOnUse" gradientTransform="translate(48.4915 -8.80705) rotate(124.893) scale(22.1634 46.8135)">
<stop stop-color="#FFEC45"/>
<stop offset="0.549191" stop-color="#FFEC45" stop-opacity="0.3"/>
<stop offset="0.961144" stop-color="#FFEC45" stop-opacity="0"/>
</radialGradient>
<clipPath id="clip0_106_1155">
<rect width="100" height="50" fill="white"/>
</clipPath>
</defs>
</svg>
