<svg width="80" height="80" viewBox="0 0 80 80" fill="none" xmlns="http://www.w3.org/2000/svg">
<rect width="80" height="80" rx="40" fill="white"/>
<path fill-rule="evenodd" clip-rule="evenodd" d="M55 22H50.5V20.5C50.5 19.6716 49.8284 19 49 19C48.1716 19 47.5 19.6716 47.5 20.5V22H32.5V20.5C32.5 19.6716 31.8284 19 31 19C30.1716 19 29.5 19.6716 29.5 20.5V22H25C23.3431 22 22 23.3431 22 25V55C22 56.6569 23.3431 58 25 58H55C56.6569 58 58 56.6569 58 55V25C58 23.3431 56.6569 22 55 22ZM29.5 25V26.5C29.5 27.3284 30.1716 28 31 28C31.8284 28 32.5 27.3284 32.5 26.5V25H47.5V26.5C47.5 27.3284 48.1716 28 49 28C49.8284 28 50.5 27.3284 50.5 26.5V25H55V31H25V25H29.5ZM55 55H25V34H55V55ZM37 38.5V50.5C37 51.3284 36.3284 52 35.5 52C34.6716 52 34 51.3284 34 50.5V40.9263L33.1712 41.3425C32.4298 41.7132 31.5282 41.4127 31.1575 40.6712C30.7868 39.9298 31.0873 39.0282 31.8287 38.6575L34.8288 37.1575C35.2939 36.9247 35.8464 36.9496 36.2888 37.2231C36.7313 37.4966 37.0004 37.9799 37 38.5ZM48.0925 44.2094L44.5 49H47.5C48.3284 49 49 49.6716 49 50.5C49 51.3284 48.3284 52 47.5 52H41.5C40.9318 52 40.4124 51.679 40.1584 51.1708C39.9043 50.6626 39.9591 50.0545 40.3 49.6L45.6963 42.4056C46.0307 41.9604 46.091 41.3665 45.8528 40.8632C45.6146 40.3598 45.1172 40.0298 44.5609 40.0061C44.0045 39.9824 43.4808 40.2688 43.2006 40.75C42.9404 41.2292 42.4406 41.5295 41.8953 41.5341C41.35 41.5388 40.8451 41.2472 40.5767 40.7725C40.3083 40.2978 40.3187 39.7149 40.6038 39.25C41.6225 37.4871 43.6981 36.6278 45.6648 37.1549C47.6315 37.6819 48.9993 39.4639 49 41.5C49.0032 42.4783 48.6843 43.4304 48.0925 44.2094Z" fill="#0D80F2"/>
</svg>
