<svg width="37" height="36" viewBox="0 0 37 36" fill="none" xmlns="http://www.w3.org/2000/svg">
<path d="M20.2452 6.31356C20.3609 5.88135 20.6435 5.51279 21.0309 5.2889C21.4182 5.06501 21.8787 5.00414 22.3109 5.11965C24.4926 5.68801 26.4832 6.82805 28.0773 8.4222C29.6715 10.0164 30.8115 12.0069 31.3799 14.1886C31.4424 14.4042 31.4612 14.6302 31.4353 14.8533C31.4093 15.0763 31.3391 15.2919 31.2288 15.4875C31.1184 15.6831 30.9702 15.8547 30.7927 15.9922C30.6152 16.1297 30.412 16.2305 30.1951 16.2885C29.9782 16.3465 29.7518 16.3607 29.5294 16.3301C29.3069 16.2995 29.0928 16.2249 28.8995 16.1105C28.7063 15.9961 28.5378 15.8443 28.404 15.664C28.2702 15.4837 28.1737 15.2785 28.1202 15.0604C27.7011 13.4534 26.8611 11.9871 25.6867 10.8128C24.5124 9.63843 23.0461 8.79843 21.4391 8.37934C21.0069 8.26364 20.6383 7.98103 20.4144 7.59364C20.1905 7.20626 20.1296 6.74582 20.2452 6.31356ZM32.5414 25.8154C32.2733 27.8568 31.2712 29.7307 29.7224 31.0873C28.1736 32.4438 26.1839 33.1902 24.125 33.187C12.6486 33.187 3.31251 23.8509 3.31251 12.3745C3.30932 10.3156 4.05569 8.32595 5.41224 6.77714C6.76878 5.22832 8.64272 4.22625 10.6841 3.95809C11.2855 3.885 11.8946 4.00762 12.4209 4.30776C12.9472 4.60791 13.3629 5.06962 13.6063 5.6245L16.5749 12.2522C16.578 12.2608 16.5818 12.2693 16.5861 12.2775C16.7685 12.7039 16.8427 13.1688 16.802 13.6308C16.7612 14.0928 16.6069 14.5375 16.3527 14.9254C16.3165 14.982 16.2765 15.036 16.2331 15.0872L13.5528 18.2807C14.5456 20.0864 16.4356 21.9595 18.2624 22.9509L21.3997 20.279C21.4501 20.2369 21.5026 20.1974 21.5572 20.1609C21.9465 19.8997 22.3951 19.7404 22.8619 19.6977C23.3287 19.6549 23.7988 19.7301 24.2291 19.9162L24.2544 19.9275L30.875 22.8932C31.4297 23.1368 31.8913 23.5525 32.1914 24.0788C32.4916 24.6051 32.6143 25.214 32.5414 25.8154ZM29.1228 25.807L23.2166 23.1618L20.0624 25.8436C20.0128 25.8865 19.9606 25.9264 19.9063 25.9631C19.5008 26.2319 19.0325 26.391 18.5472 26.4248C18.0619 26.4585 17.5761 26.3659 17.1374 26.1557C14.398 24.8339 11.6684 22.1226 10.3438 19.4057C10.1331 18.9689 10.039 18.4851 10.0705 18.0011C10.1021 17.5172 10.2582 17.0497 10.5238 16.6439C10.5604 16.5873 10.6008 16.5333 10.6447 16.4822L13.3391 13.2872L10.6925 7.3809C9.55543 7.63149 8.53823 8.26337 7.80973 9.17169C7.08123 10.08 6.68525 11.2101 6.68751 12.3745C6.69309 16.9975 8.53204 21.4296 11.801 24.6985C15.07 27.9675 19.502 29.8064 24.125 29.812C25.2901 29.8152 26.4212 29.4197 27.3304 28.6911C28.2396 27.9625 28.8721 26.9448 29.1228 25.807ZM19.8542 13.7062C20.5443 13.9237 21.1718 14.3044 21.6834 14.8161C22.1951 15.3277 22.5758 15.9552 22.7933 16.6453C22.901 16.9877 23.115 17.2868 23.4043 17.4992C23.6936 17.7117 24.0431 17.8263 24.402 17.8265C24.5742 17.8263 24.7453 17.8002 24.9097 17.7492C25.3349 17.6146 25.6896 17.3172 25.8962 16.922C26.1028 16.5267 26.1445 16.0657 26.0122 15.6398C25.6316 14.4315 24.9652 13.3329 24.0694 12.4371C23.1737 11.5414 22.075 10.8749 20.8667 10.4943C20.6541 10.423 20.4293 10.3947 20.2056 10.4113C19.9819 10.4278 19.7638 10.4887 19.5639 10.5905C19.3641 10.6923 19.1865 10.833 19.0416 11.0042C18.8967 11.1755 18.7875 11.3739 18.7202 11.5878C18.6528 11.8018 18.6289 12.027 18.6496 12.2504C18.6704 12.4737 18.7355 12.6907 18.8411 12.8886C18.9467 13.0865 19.0907 13.2613 19.2646 13.4029C19.4386 13.5445 19.639 13.65 19.8542 13.7132V13.7062Z" fill="white"/>
</svg>
