<svg width="80" height="80" viewBox="0 0 80 80" fill="none" xmlns="http://www.w3.org/2000/svg">
<rect width="80" height="80" rx="40" fill="white"/>
<path fill-rule="evenodd" clip-rule="evenodd" d="M57.5947 55.6376L48.9381 46.9827C54.1503 40.7251 53.5188 31.4746 47.5044 25.9835C41.49 20.4924 32.2204 20.7031 26.4617 26.4617C20.7031 32.2204 20.4924 41.49 25.9835 47.5044C31.4746 53.5188 40.7251 54.1503 46.9827 48.9381L55.6376 57.5947C56.178 58.1351 57.0542 58.1351 57.5947 57.5947C58.1351 57.0542 58.1351 56.178 57.5947 55.6376ZM24.8045 37.2525C24.8045 30.3776 30.3776 24.8045 37.2525 24.8045C44.1274 24.8045 49.7005 30.3776 49.7005 37.2525C49.7005 44.1274 44.1274 49.7005 37.2525 49.7005C30.3808 49.6929 24.8121 44.1242 24.8045 37.2525Z" fill="#0D80F2"/>
</svg>
