<svg width="80" height="80" viewBox="0 0 80 80" fill="none" xmlns="http://www.w3.org/2000/svg">
<rect width="80" height="80" rx="40" fill="white"/>
<path fill-rule="evenodd" clip-rule="evenodd" d="M61.9 44.2C61.2373 44.6971 60.2971 44.5627 59.8 43.9C57.9665 41.4355 55.0717 39.9881 52 40C51.3969 39.9999 50.8526 39.6387 50.6181 39.0831C50.4608 38.7103 50.4608 38.2897 50.6181 37.9169C50.8526 37.3613 51.3969 37.0001 52 37C54.3385 36.9998 56.2871 35.2085 56.4837 32.8783C56.6803 30.5481 55.0593 28.4557 52.7539 28.0637C50.4486 27.6717 48.2271 29.1108 47.6425 31.375C47.4354 32.1775 46.6169 32.6602 45.8144 32.4531C45.0118 32.246 44.5291 31.4275 44.7362 30.625C45.5373 27.5253 48.2177 25.2759 51.4093 25.0247C54.601 24.7736 57.6002 26.5761 58.8762 29.5124C60.1522 32.4486 59.4237 35.8711 57.0625 38.0331C59.1021 38.9162 60.8752 40.3176 62.2056 42.0981C62.4443 42.4172 62.5462 42.8181 62.4889 43.2125C62.4316 43.6068 62.2197 43.9621 61.9 44.2ZM51.7975 55.75C52.0931 56.215 52.11 56.8046 51.8414 57.2857C51.5729 57.7668 51.0623 58.062 50.5113 58.0546C49.9604 58.0471 49.4579 57.7382 49.2025 57.25C47.28 53.9947 43.7806 51.9973 40 51.9973C36.2194 51.9973 32.72 53.9947 30.7975 57.25C30.5421 57.7382 30.0396 58.0471 29.4887 58.0546C28.9377 58.062 28.4271 57.7668 28.1586 57.2857C27.89 56.8046 27.9069 56.215 28.2025 55.75C29.6567 53.2513 31.8741 51.285 34.5287 50.14C31.4659 47.795 30.2381 43.7589 31.4761 40.1056C32.7141 36.4522 36.1426 33.994 40 33.994C43.8574 33.994 47.2859 36.4522 48.5239 40.1056C49.7619 43.7589 48.534 47.795 45.4713 50.14C48.1259 51.285 50.3433 53.2513 51.7975 55.75ZM40 49C43.3137 49 46 46.3137 46 43C46 39.6863 43.3137 37 40 37C36.6863 37 34 39.6863 34 43C34 46.3137 36.6863 49 40 49ZM29.5 38.5C29.5 37.6716 28.8284 37 28 37C25.6615 36.9998 23.7129 35.2085 23.5163 32.8783C23.3197 30.5481 24.9407 28.4557 27.2461 28.0637C29.5514 27.6717 31.7729 29.1108 32.3575 31.375C32.5646 32.1775 33.3831 32.6602 34.1856 32.4531C34.9882 32.246 35.4709 31.4275 35.2638 30.625C34.4627 27.5253 31.7823 25.2759 28.5907 25.0247C25.399 24.7736 22.3998 26.5761 21.1238 29.5124C19.8478 32.4486 20.5763 35.8711 22.9375 38.0331C20.8999 38.9171 19.1288 40.3184 17.8 42.0981C17.3024 42.7609 17.4363 43.7015 18.0991 44.1991C18.7618 44.6966 19.7024 44.5627 20.2 43.9C22.0335 41.4355 24.9283 39.9881 28 40C28.8284 40 29.5 39.3284 29.5 38.5Z" fill="#0D80F2"/>
</svg>
